<?xml version="1.0" standalone="no"?>
<!DOCTYPE svg PUBLIC "-//W3C//DTD SVG 20010904//EN"
 "http://www.w3.org/TR/2001/REC-SVG-20010904/DTD/svg10.dtd">
<svg version="1.0" xmlns="http://www.w3.org/2000/svg"
 width="1024.000000pt" height="1024.000000pt" viewBox="0 0 1024.000000 1024.000000"
 preserveAspectRatio="xMidYMid meet">
<metadata>
Created by potrace 1.14, written by Peter Selinger 2001-2017
</metadata>
<g transform="translate(0.000000,1024.000000) scale(0.100000,-0.100000)"
fill="#000000" stroke="none">
<path d="M4749 9486 c-2 -2 -40 -7 -84 -11 -132 -10 -354 -48 -483 -81 -236
-61 -545 -182 -762 -299 -19 -11 -37 -20 -40 -20 -43 -9 -394 -255 -520 -364
-93 -80 -287 -274 -351 -351 -30 -36 -56 -67 -59 -70 -22 -22 -88 -112 -144
-195 -36 -55 -78 -118 -94 -140 -15 -21 -30 -46 -34 -55 -3 -9 -24 -45 -45
-81 -38 -62 -115 -214 -166 -329 -22 -50 -57 -144 -107 -290 -21 -60 -86 -341
-95 -405 -2 -22 -7 -51 -10 -65 -11 -56 -22 -189 -30 -395 -4 -77 -8 -169 -9
-206 -3 -56 -8 -71 -37 -110 -44 -58 -101 -175 -114 -234 -36 -162 -40 -327
-11 -450 76 -319 284 -587 611 -786 69 -42 257 -139 279 -144 6 -1 20 -6 31
-10 11 -4 49 -19 85 -32 115 -43 112 -38 45 -68 -33 -14 -97 -45 -143 -67 -45
-23 -84 -39 -85 -37 -2 2 -15 24 -29 49 -54 95 -157 174 -239 185 -62 9 -125
-7 -164 -41 -21 -18 -36 -23 -55 -19 -135 30 -272 -45 -386 -212 -58 -85 -99
-235 -88 -323 2 -14 5 -44 8 -68 16 -130 121 -313 250 -436 110 -105 298 -232
423 -285 155 -66 267 -86 491 -85 134 0 152 -2 147 -15 -4 -14 -13 -69 -30
-181 -4 -26 -14 -103 -20 -155 -24 -202 -25 -469 -1 -580 28 -134 108 -324
164 -388 21 -24 13 -28 -60 -33 -35 -1 -121 -10 -193 -18 -71 -8 -157 -17
-190 -21 -32 -4 -62 -8 -65 -10 -4 -3 -46 -9 -140 -20 -14 -2 -25 -4 -25 -5 0
-2 -9 -4 -20 -5 -11 -2 -35 -6 -53 -9 -61 -12 -72 -10 -72 9 0 8 -4 15 -10 15
-5 0 -10 5 -10 11 0 20 -68 96 -90 102 -23 6 -60 -26 -60 -52 0 -9 -3 -41 -7
-71 -6 -55 -17 -74 -40 -65 -7 2 -15 0 -17 -4 -3 -5 -24 -11 -47 -15 -38 -6
-46 -4 -73 23 -43 41 -106 72 -134 65 -26 -7 -36 -37 -30 -93 l3 -40 -51 -16
c-28 -9 -61 -17 -73 -18 -11 -1 -21 -6 -21 -11 0 -5 -3 -7 -6 -3 -6 5 -22 1
-99 -29 -11 -4 -23 -6 -27 -6 -5 1 -8 -3 -8 -9 0 -6 -7 -8 -16 -5 -10 4 -13 2
-8 -6 5 -8 2 -9 -10 -5 -9 4 -15 3 -11 -2 3 -5 -11 -15 -30 -21 -19 -6 -35
-16 -35 -21 0 -6 -4 -8 -9 -5 -12 8 -55 -52 -57 -80 0 -13 3 -24 8 -24 4 0 8
-6 8 -13 0 -7 9 -19 21 -27 11 -8 30 -23 41 -33 12 -9 27 -17 35 -17 8 0 12
-4 9 -8 -2 -4 5 -9 16 -9 11 -1 29 -10 39 -19 11 -9 19 -14 19 -10 0 3 11 -1
25 -10 14 -9 25 -13 25 -9 0 4 6 2 13 -4 8 -6 17 -8 20 -4 4 3 7 1 7 -6 0 -7
5 -9 10 -6 6 4 17 1 25 -5 8 -7 15 -10 15 -7 0 4 19 -1 42 -9 23 -8 55 -17 72
-20 17 -3 35 -9 41 -13 5 -5 17 -8 25 -9 8 0 40 -5 70 -12 65 -13 83 -17 130
-24 34 -6 49 -8 115 -21 17 -3 47 -8 68 -11 47 -7 72 -12 72 -14 0 -1 20 -3
45 -5 25 -2 56 -7 70 -10 28 -6 66 -12 125 -20 22 -3 56 -8 75 -11 55 -9 94
-14 110 -15 8 -1 47 -5 85 -10 86 -10 177 -19 230 -24 22 -1 69 -5 105 -9 36
-3 103 -8 150 -11 47 -4 108 -8 135 -10 97 -7 341 -22 490 -30 94 -5 210 -12
330 -21 330 -23 1563 -34 2035 -19 433 14 695 26 850 40 25 2 99 6 165 9 66 4
138 9 160 11 22 3 90 7 150 10 61 3 124 8 140 10 17 3 68 7 115 10 47 4 101 8
120 10 19 2 71 6 115 10 44 3 89 7 100 9 12 2 54 7 95 11 81 7 109 10 167 19
21 3 58 8 83 11 25 3 59 7 77 10 18 2 36 6 40 8 4 3 39 8 77 11 37 3 71 8 75
10 3 2 29 6 56 10 28 3 61 8 75 11 82 16 129 25 155 29 17 3 41 7 55 10 14 4
41 8 60 11 19 2 56 11 83 19 26 8 47 12 47 10 0 -2 18 3 40 11 22 8 42 14 45
15 3 0 6 0 8 1 3 1 35 9 50 12 6 1 18 6 25 10 6 5 12 5 12 1 0 -3 7 -1 15 6 8
6 19 9 25 5 5 -3 10 -1 10 4 0 6 3 10 8 9 4 -1 24 6 46 15 21 9 42 17 47 17 5
0 9 4 9 9 0 7 27 19 46 19 3 1 14 10 23 21 10 12 24 21 31 21 7 0 11 3 8 6 -4
3 2 14 13 25 29 29 23 57 -20 100 -21 21 -35 41 -32 45 3 3 1 5 -4 3 -14 -3
-62 18 -70 31 -3 5 -11 8 -16 5 -5 -4 -9 -1 -9 4 0 6 -3 10 -7 9 -5 -2 -28 6
-53 16 -48 21 -55 23 -85 30 -11 2 -21 5 -22 6 -2 2 -7 4 -13 5 -5 1 -11 3
-12 5 -3 2 -18 6 -56 14 -13 3 -32 8 -42 11 -10 3 -28 8 -40 10 -61 12 -60 9
-57 103 4 106 -7 170 -33 197 -20 20 -20 20 -57 0 -41 -22 -102 -96 -136 -163
l-22 -44 -45 7 c-107 14 -136 26 -156 64 -25 47 -144 211 -191 264 -63 70
-155 160 -208 202 -28 22 -52 43 -55 46 -10 11 -156 106 -227 148 l-73 42 0
112 c-1 214 -12 453 -26 539 -2 15 -6 49 -9 74 -3 26 -9 72 -15 103 -5 31 -12
70 -14 86 -2 17 -9 55 -15 85 -6 30 -14 66 -16 80 -3 14 -14 59 -26 100 -11
41 -24 91 -28 110 -29 125 -133 400 -228 600 l-59 125 105 60 c170 97 264 170
416 322 222 224 368 473 460 788 29 100 27 91 48 195 49 239 55 636 16 905
-79 537 -251 986 -552 1440 -304 459 -734 838 -1232 1088 -245 122 -573 241
-812 293 -155 33 -270 56 -303 60 -19 2 -48 6 -65 8 -16 3 -50 8 -75 11 -52 7
-605 17 -611 11z"/>
</g>
</svg>
