<?xml version="1.0" encoding="utf-8"?>
<!-- Generator: Adobe Illustrator 28.2.0, SVG Export Plug-In . SVG Version: 6.00 Build 0)  -->
<svg version="1.1" id="Layer_2" xmlns="http://www.w3.org/2000/svg" xmlns:xlink="http://www.w3.org/1999/xlink" x="0px" y="0px"
	 width="800px" height="800px" viewBox="0 0 800 800" style="enable-background:new 0 0 800 800;" xml:space="preserve">
<path d="M591.4,278.7C591.4,278.7,591.3,278.7,591.4,278.7c-0.5-0.1-1-0.1-1.5-0.1c-0.2,0-0.4,0-0.5,0c-0.3,0-0.6,0-1,0
	c-0.3,0-0.6,0-0.9,0c-0.2,0-0.4,0-0.6,0c-0.4,0-0.8,0-1.2,0.1c-0.1,0-0.2,0-0.3,0c-0.5,0-0.9,0.1-1.4,0.1c0,0-0.1,0-0.1,0
	c-6.9,0.9-13.5,3.9-18.9,9.1l-165,165l0,0l-24,24c-12.2,12.6-12.5,32.4-0.9,45.3l1.4,1.4c5.5,5.5,12.6,8.8,20.2,9.6
	c0.1,0,0.1,0,0.2,0c0.4,0,0.9,0.1,1.3,0.1c0.2,0,0.4,0,0.7,0c0.3,0,0.6,0,0.8,0c0.3,0,0.7,0,1,0c0.2,0,0.3,0,0.5,0
	c0.4,0,0.9,0,1.3-0.1c0.1,0,0.1,0,0.2,0c7.4-0.6,14.7-3.7,20.5-9.2l165-165l0,0l24-24c12.2-12.6,12.5-32.4,0.9-45.3l-1.4-1.4
	C606.2,282.8,599,279.4,591.4,278.7z"/>
<path d="M178.5,308.6C178.5,308.6,178.5,308.6,178.5,308.6c-0.1,0.5-0.1,1-0.1,1.5c0,0.2,0,0.4,0,0.5c0,0.3,0,0.6,0,1
	c0,0.3,0,0.6,0,0.9c0,0.2,0,0.4,0,0.6c0,0.4,0,0.8,0.1,1.2c0,0.1,0,0.2,0,0.3c0,0.5,0.1,0.9,0.1,1.4c0,0,0,0.1,0,0.1
	c0.9,6.9,3.9,13.5,9.1,18.9l165,165l0,0l24,24c12.6,12.2,32.4,12.5,45.3,0.9l1.4-1.4c5.5-5.5,8.8-12.6,9.6-20.2c0-0.1,0-0.1,0-0.2
	c0-0.4,0.1-0.9,0.1-1.3c0-0.2,0-0.4,0-0.7c0-0.3,0-0.6,0-0.8c0-0.3,0-0.7,0-1c0-0.2,0-0.3,0-0.5c0-0.4,0-0.9-0.1-1.3
	c0-0.1,0-0.1,0-0.2c-0.6-7.4-3.7-14.7-9.2-20.5l-165-165l0,0l-24-24c-12.6-12.2-32.4-12.5-45.3-0.9l-1.4,1.4
	C182.7,293.8,179.3,300.9,178.5,308.6z"/>
</svg>
