<?xml version="1.0" encoding="utf-8"?>
<!-- Generator: Adobe Illustrator 28.3.0, SVG Export Plug-In . SVG Version: 6.00 Build 0)  -->
<svg version="1.1" id="_x32_" xmlns="http://www.w3.org/2000/svg" xmlns:xlink="http://www.w3.org/1999/xlink" x="0px" y="0px"
	 width="512px" height="512px" viewBox="0 0 512 512" style="enable-background:new 0 0 512 512;" xml:space="preserve">
<style type="text/css">
	.st0{fill:#FFFFFF;}
	.st1{fill:#A16AE8;}
</style>
<g>
	<path d="M292.1,57.9h-88.7c-30.3,0-57.9,12.3-77.7,32.2c-19.9,19.8-32.2,47.4-32.2,77.7v124.1c0,44.4,17,84.8,44.8,114.3
		c27.7,29.4,66.6,48,109.5,47.9c42.9,0,81.8-18.5,109.5-47.9C385,376.8,402,336.3,402,291.9V167.8c0-30.3-12.3-57.9-32.2-77.7
		C350,70.2,322.4,57.9,292.1,57.9z"/>
	<path class="st0" d="M136,167.8c0-18.7,7.5-35.4,19.8-47.7c12.3-12.2,29-19.7,47.7-19.8h43.8v101.2H136V167.8z"/>
	<path class="st0" d="M359.5,291.9c0,33.5-12.8,63.5-33.2,85.1c-20.4,21.6-48,34.6-78.6,34.6c-30.6,0-58.2-13-78.6-34.6
		c-20.4-21.6-33.2-51.6-33.2-85.1v-60h223.5L359.5,291.9L359.5,291.9z"/>
</g>
<g>
	<path class="st1" d="M359,201.6H247.8V100.4h43.8c18.7,0,35.4,7.5,47.7,19.8c12.2,12.3,19.7,29,19.8,47.7V201.6z"/>
</g>
</svg>
